<svg xmlns="http://www.w3.org/2000/svg" xmlns:xlink="http://www.w3.org/1999/xlink" contentStyleType="text/css" data-diagram-type="SEQUENCE" height="382px" preserveAspectRatio="none" style="width:313px;height:382px;background:#FFFFFF;" version="1.1" viewBox="0 0 313 382" width="313px" zoomAndPan="magnify"><defs/><g><g><title>User</title><rect fill="transparent" height="220.7969" width="8" x="19.9551" y="81.2969"/><line style="stroke:#181818;stroke-width:0.5;stroke-dasharray:5.0,5.0;" x1="23" x2="23" y1="81.2969" y2="302.0938"/></g><g><title>KvsBuilder</title><rect fill="transparent" height="220.7969" width="8" x="93.0464" y="81.2969"/><line style="stroke:#181818;stroke-width:0.5;stroke-dasharray:5.0,5.0;" x1="96.9102" x2="96.9102" y1="81.2969" y2="302.0938"/></g><g><title>Kvs</title><rect fill="transparent" height="220.7969" width="8" x="284.1968" y="81.2969"/><line style="stroke:#181818;stroke-width:0.5;stroke-dasharray:5.0,5.0;" x1="287.8169" x2="287.8169" y1="81.2969" y2="302.0938"/></g><text fill="#000000" font-family="sans-serif" font-size="14" lengthAdjust="spacing" textLength="31.9102" x="5" y="77.9951">User</text><ellipse cx="23.9551" cy="13.5" fill="#E2E2F0" rx="8" ry="8" style="stroke:#181818;stroke-width:0.5;"/><path d="M23.9551,21.5 L23.9551,48.5 M10.9551,29.5 L36.9551,29.5 M23.9551,48.5 L10.9551,63.5 M23.9551,48.5 L36.9551,63.5 " fill="transparent" style="stroke:#181818;stroke-width:0.5;"/><text fill="#000000" font-family="sans-serif" font-size="14" lengthAdjust="spacing" textLength="31.9102" x="5" y="314.0889">User</text><ellipse cx="23.9551" cy="325.8906" fill="#E2E2F0" rx="8" ry="8" style="stroke:#181818;stroke-width:0.5;"/><path d="M23.9551,333.8906 L23.9551,360.8906 M10.9551,341.8906 L36.9551,341.8906 M23.9551,360.8906 L10.9551,375.8906 M23.9551,360.8906 L36.9551,375.8906 " fill="transparent" style="stroke:#181818;stroke-width:0.5;"/><rect fill="#E2E2F0" height="30.2969" rx="2.5" ry="2.5" style="stroke:#181818;stroke-width:0.5;" width="88.2725" x="52.9102" y="50"/><text fill="#000000" font-family="sans-serif" font-size="14" lengthAdjust="spacing" textLength="74.2725" x="59.9102" y="69.9951">KvsBuilder</text><rect fill="#E2E2F0" height="30.2969" rx="2.5" ry="2.5" style="stroke:#181818;stroke-width:0.5;" width="88.2725" x="52.9102" y="301.0938"/><text fill="#000000" font-family="sans-serif" font-size="14" lengthAdjust="spacing" textLength="74.2725" x="59.9102" y="321.0889">KvsBuilder</text><rect fill="#E2E2F0" height="30.2969" rx="2.5" ry="2.5" style="stroke:#181818;stroke-width:0.5;" width="38.7598" x="268.8169" y="50"/><text fill="#000000" font-family="sans-serif" font-size="14" lengthAdjust="spacing" textLength="24.7598" x="275.8169" y="69.9951">Kvs</text><rect fill="#E2E2F0" height="30.2969" rx="2.5" ry="2.5" style="stroke:#181818;stroke-width:0.5;" width="38.7598" x="268.8169" y="301.0938"/><text fill="#000000" font-family="sans-serif" font-size="14" lengthAdjust="spacing" textLength="24.7598" x="275.8169" y="321.0889">Kvs</text><polygon fill="#181818" points="85.0464,108.4297,95.0464,112.4297,85.0464,116.4297,89.0464,112.4297" style="stroke:#181818;stroke-width:1;"/><line style="stroke:#181818;stroke-width:1;" x1="23.9551" x2="91.0464" y1="112.4297" y2="112.4297"/><text fill="#000000" font-family="sans-serif" font-size="13" lengthAdjust="spacing" textLength="37.0132" x="30.9551" y="107.3638">new()</text><line style="stroke:#181818;stroke-width:1;" x1="97.0464" x2="139.0464" y1="141.5625" y2="141.5625"/><line style="stroke:#181818;stroke-width:1;" x1="139.0464" x2="139.0464" y1="141.5625" y2="154.5625"/><line style="stroke:#181818;stroke-width:1;" x1="98.0464" x2="139.0464" y1="154.5625" y2="154.5625"/><polygon fill="#181818" points="108.0464,150.5625,98.0464,154.5625,108.0464,158.5625,104.0464,154.5625" style="stroke:#181818;stroke-width:1;"/><text fill="#000000" font-family="sans-serif" font-size="13" lengthAdjust="spacing" textLength="177.1504" x="104.0464" y="136.4966">need_defaults()/need_kvs()</text><line style="stroke:#181818;stroke-width:1;" x1="97.0464" x2="139.0464" y1="183.6953" y2="183.6953"/><line style="stroke:#181818;stroke-width:1;" x1="139.0464" x2="139.0464" y1="183.6953" y2="196.6953"/><line style="stroke:#181818;stroke-width:1;" x1="98.0464" x2="139.0464" y1="196.6953" y2="196.6953"/><polygon fill="#181818" points="108.0464,192.6953,98.0464,196.6953,108.0464,200.6953,104.0464,196.6953" style="stroke:#181818;stroke-width:1;"/><text fill="#000000" font-family="sans-serif" font-size="13" lengthAdjust="spacing" textLength="42.1104" x="104.0464" y="178.6294">build()</text><polygon fill="#181818" points="276.1968,221.8281,286.1968,225.8281,276.1968,229.8281,280.1968,225.8281" style="stroke:#181818;stroke-width:1;"/><line style="stroke:#181818;stroke-width:1;stroke-dasharray:2.0,2.0;" x1="97.0464" x2="282.1968" y1="225.8281" y2="225.8281"/><text fill="#000000" font-family="sans-serif" font-size="13" lengthAdjust="spacing" textLength="133.3643" x="104.0464" y="220.7622">returns Kvs instance</text><polygon fill="#181818" points="276.1968,250.9609,286.1968,254.9609,276.1968,258.9609,280.1968,254.9609" style="stroke:#181818;stroke-width:1;"/><line style="stroke:#181818;stroke-width:1;" x1="23.9551" x2="282.1968" y1="254.9609" y2="254.9609"/><text fill="#000000" font-family="sans-serif" font-size="13" lengthAdjust="spacing" textLength="149.8999" x="30.9551" y="249.895">set_value()/get_value()</text><polygon fill="#181818" points="276.1968,280.0938,286.1968,284.0938,276.1968,288.0938,280.1968,284.0938" style="stroke:#181818;stroke-width:1;"/><line style="stroke:#181818;stroke-width:1;" x1="23.9551" x2="282.1968" y1="284.0938" y2="284.0938"/><text fill="#000000" font-family="sans-serif" font-size="13" lengthAdjust="spacing" textLength="41.5835" x="30.9551" y="279.0278">flush()</text><!--SRC=[IqmkoIzI22rEBU824GgwTWhUPSLEfPavAQb5LWfvgUKQcbm84Kpvr9JubDIqnDASac8DJNqmFxki6A-c9103JGL4YPL2KMf9QL5UCOYZa9bNN9AObvoAx38hXUBKalYon9pILA1rwGWsggAqdDBY30rD0000]--></g></svg>