<svg xmlns="http://www.w3.org/2000/svg" xmlns:xlink="http://www.w3.org/1999/xlink" contentStyleType="text/css" data-diagram-type="CLASS" height="228px" preserveAspectRatio="none" style="width:421px;height:228px;background:#FFFFFF;" version="1.1" viewBox="0 0 421 228" width="421px" zoomAndPan="magnify"><defs/><g><!--cluster rust_kvs--><g id="cluster_rust_kvs"><path d="M8.5,6 L75.166,6 A3.75,3.75 0 0 1 77.666,8.5 L84.666,28.2969 L411.5,28.2969 A2.5,2.5 0 0 1 414,30.7969 L414,218.5 A2.5,2.5 0 0 1 411.5,221 L8.5,221 A2.5,2.5 0 0 1 6,218.5 L6,8.5 A2.5,2.5 0 0 1 8.5,6 " fill="transparent" style="stroke:#000000;stroke-width:1.5;"/><line style="stroke:#000000;stroke-width:1.5;" x1="6" x2="84.666" y1="28.2969" y2="28.2969"/><text fill="#000000" font-family="sans-serif" font-size="14" font-weight="bold" lengthAdjust="spacing" textLength="65.666" x="10" y="20.9951">rust_kvs</text></g><!--class Kvs--><g id="elem_Kvs"><rect codeLine="2" fill="#F1F1F1" height="48" id="Kvs" rx="2.5" ry="2.5" style="stroke:#181818;stroke-width:0.5;" width="56.7598" x="227.5" y="153"/><ellipse cx="242.5" cy="169" fill="#ADD1B2" rx="11" ry="11" style="stroke:#181818;stroke-width:1;"/><path d="M245.4688,174.6406 Q244.8906,174.9375 244.25,175.0781 Q243.6094,175.2344 242.9063,175.2344 Q240.4063,175.2344 239.0781,173.5938 Q237.7656,171.9375 237.7656,168.8125 Q237.7656,165.6875 239.0781,164.0313 Q240.4063,162.375 242.9063,162.375 Q243.6094,162.375 244.25,162.5313 Q244.9063,162.6875 245.4688,162.9844 L245.4688,165.7031 Q244.8438,165.125 244.25,164.8594 Q243.6563,164.5781 243.0313,164.5781 Q241.6875,164.5781 241,165.6563 Q240.3125,166.7188 240.3125,168.8125 Q240.3125,170.9063 241,171.9844 Q241.6875,173.0469 243.0313,173.0469 Q243.6563,173.0469 244.25,172.7813 Q244.8438,172.5 245.4688,171.9219 L245.4688,174.6406 Z " fill="#000000"/><text fill="#000000" font-family="sans-serif" font-size="14" lengthAdjust="spacing" textLength="24.7598" x="256.5" y="173.8467">Kvs</text><line style="stroke:#181818;stroke-width:0.5;" x1="228.5" x2="283.2598" y1="185" y2="185"/><line style="stroke:#181818;stroke-width:0.5;" x1="228.5" x2="283.2598" y1="193" y2="193"/></g><!--class KvsApi--><g id="elem_KvsApi"><rect codeLine="3" fill="#F1F1F1" height="56.2656" id="KvsApi" rx="2.5" ry="2.5" style="stroke:#181818;stroke-width:0.5;" width="79.1133" x="319.5" y="149"/><ellipse cx="334.5" cy="169.1328" fill="#ADD1B2" rx="11" ry="11" style="stroke:#181818;stroke-width:1;"/><path d="M337.4688,174.7734 Q336.8906,175.0703 336.25,175.2109 Q335.6094,175.3672 334.9063,175.3672 Q332.4063,175.3672 331.0781,173.7266 Q329.7656,172.0703 329.7656,168.9453 Q329.7656,165.8203 331.0781,164.1641 Q332.4063,162.5078 334.9063,162.5078 Q335.6094,162.5078 336.25,162.6641 Q336.9063,162.8203 337.4688,163.1172 L337.4688,165.8359 Q336.8438,165.2578 336.25,164.9922 Q335.6563,164.7109 335.0313,164.7109 Q333.6875,164.7109 333,165.7891 Q332.3125,166.8516 332.3125,168.9453 Q332.3125,171.0391 333,172.1172 Q333.6875,173.1797 335.0313,173.1797 Q335.6563,173.1797 336.25,172.9141 Q336.8438,172.6328 337.4688,172.0547 L337.4688,174.7734 Z " fill="#000000"/><text fill="#000000" font-family="sans-serif" font-size="12" font-style="italic" lengthAdjust="spacing" textLength="39.8438" x="352.1348" y="165.1387">&#171;trait&#187;</text><text fill="#000000" font-family="sans-serif" font-size="14" lengthAdjust="spacing" textLength="47.1133" x="348.5" y="180.9639">KvsApi</text><line style="stroke:#181818;stroke-width:0.5;" x1="320.5" x2="397.6133" y1="189.2656" y2="189.2656"/><line style="stroke:#181818;stroke-width:0.5;" x1="320.5" x2="397.6133" y1="197.2656" y2="197.2656"/></g><!--class KvsBuilder--><g id="elem_KvsBuilder"><rect codeLine="4" fill="#F1F1F1" height="48" id="KvsBuilder" rx="2.5" ry="2.5" style="stroke:#181818;stroke-width:0.5;" width="106.2725" x="292" y="41"/><ellipse cx="307" cy="57" fill="#ADD1B2" rx="11" ry="11" style="stroke:#181818;stroke-width:1;"/><path d="M309.9688,62.6406 Q309.3906,62.9375 308.75,63.0781 Q308.1094,63.2344 307.4063,63.2344 Q304.9063,63.2344 303.5781,61.5938 Q302.2656,59.9375 302.2656,56.8125 Q302.2656,53.6875 303.5781,52.0313 Q304.9063,50.375 307.4063,50.375 Q308.1094,50.375 308.75,50.5313 Q309.4063,50.6875 309.9688,50.9844 L309.9688,53.7031 Q309.3438,53.125 308.75,52.8594 Q308.1563,52.5781 307.5313,52.5781 Q306.1875,52.5781 305.5,53.6563 Q304.8125,54.7188 304.8125,56.8125 Q304.8125,58.9063 305.5,59.9844 Q306.1875,61.0469 307.5313,61.0469 Q308.1563,61.0469 308.75,60.7813 Q309.3438,60.5 309.9688,59.9219 L309.9688,62.6406 Z " fill="#000000"/><text fill="#000000" font-family="sans-serif" font-size="14" lengthAdjust="spacing" textLength="74.2725" x="321" y="61.8467">KvsBuilder</text><line style="stroke:#181818;stroke-width:0.5;" x1="293" x2="397.2725" y1="73" y2="73"/><line style="stroke:#181818;stroke-width:0.5;" x1="293" x2="397.2725" y1="81" y2="81"/></g><!--class KvsValue--><g id="elem_KvsValue"><rect codeLine="5" fill="#F1F1F1" height="48" id="KvsValue" rx="2.5" ry="2.5" style="stroke:#181818;stroke-width:0.5;" width="96.292" x="161" y="41"/><ellipse cx="176" cy="57" fill="#ADD1B2" rx="11" ry="11" style="stroke:#181818;stroke-width:1;"/><path d="M178.9688,62.6406 Q178.3906,62.9375 177.75,63.0781 Q177.1094,63.2344 176.4063,63.2344 Q173.9063,63.2344 172.5781,61.5938 Q171.2656,59.9375 171.2656,56.8125 Q171.2656,53.6875 172.5781,52.0313 Q173.9063,50.375 176.4063,50.375 Q177.1094,50.375 177.75,50.5313 Q178.4063,50.6875 178.9688,50.9844 L178.9688,53.7031 Q178.3438,53.125 177.75,52.8594 Q177.1563,52.5781 176.5313,52.5781 Q175.1875,52.5781 174.5,53.6563 Q173.8125,54.7188 173.8125,56.8125 Q173.8125,58.9063 174.5,59.9844 Q175.1875,61.0469 176.5313,61.0469 Q177.1563,61.0469 177.75,60.7813 Q178.3438,60.5 178.9688,59.9219 L178.9688,62.6406 Z " fill="#000000"/><text fill="#000000" font-family="sans-serif" font-size="14" lengthAdjust="spacing" textLength="64.292" x="190" y="61.8467">KvsValue</text><line style="stroke:#181818;stroke-width:0.5;" x1="162" x2="256.292" y1="73" y2="73"/><line style="stroke:#181818;stroke-width:0.5;" x1="162" x2="256.292" y1="81" y2="81"/></g><!--class ErrorCode--><g id="elem_ErrorCode"><rect codeLine="6" fill="#F1F1F1" height="48" id="ErrorCode" rx="2.5" ry="2.5" style="stroke:#181818;stroke-width:0.5;" width="102.5195" x="22.5" y="41"/><ellipse cx="37.5" cy="57" fill="#ADD1B2" rx="11" ry="11" style="stroke:#181818;stroke-width:1;"/><path d="M40.4688,62.6406 Q39.8906,62.9375 39.25,63.0781 Q38.6094,63.2344 37.9063,63.2344 Q35.4063,63.2344 34.0781,61.5938 Q32.7656,59.9375 32.7656,56.8125 Q32.7656,53.6875 34.0781,52.0313 Q35.4063,50.375 37.9063,50.375 Q38.6094,50.375 39.25,50.5313 Q39.9063,50.6875 40.4688,50.9844 L40.4688,53.7031 Q39.8438,53.125 39.25,52.8594 Q38.6563,52.5781 38.0313,52.5781 Q36.6875,52.5781 36,53.6563 Q35.3125,54.7188 35.3125,56.8125 Q35.3125,58.9063 36,59.9844 Q36.6875,61.0469 38.0313,61.0469 Q38.6563,61.0469 39.25,60.7813 Q39.8438,60.5 40.4688,59.9219 L40.4688,62.6406 Z " fill="#000000"/><text fill="#000000" font-family="sans-serif" font-size="14" lengthAdjust="spacing" textLength="70.5195" x="51.5" y="61.8467">ErrorCode</text><line style="stroke:#181818;stroke-width:0.5;" x1="23.5" x2="124.0195" y1="73" y2="73"/><line style="stroke:#181818;stroke-width:0.5;" x1="23.5" x2="124.0195" y1="81" y2="81"/></g><!--link Kvs to KvsApi--><g id="link_Kvs_KvsApi"><path codeLine="8" d="M284.57,177 C296.2,177 289.83,177 301.46,177 " fill="transparent" id="Kvs-to-KvsApi" style="stroke:#181818;stroke-width:1;"/><polygon fill="transparent" points="319.46,177,301.46,171,301.46,183,319.46,177" style="stroke:#181818;stroke-width:1;"/></g><!--link KvsBuilder to Kvs--><g id="link_KvsBuilder_Kvs"><path codeLine="9" d="M326.34,89.06 C311.15,107.83 293.5957,129.5469 278.4057,148.3069 " fill="transparent" id="KvsBuilder-to-Kvs" style="stroke:#181818;stroke-width:1;"/><polygon fill="#181818" points="274.63,152.97,283.4022,148.4925,277.7764,149.0841,277.1848,143.4583,274.63,152.97" style="stroke:#181818;stroke-width:1;"/></g><!--SRC=[AqXCpavCJrLGAYejBedFBYjMKgZcKW22v9p4uc85xx9YL9vZGQQ2ZKr9KM9cYPqTgfHJQMPEIceHgc1OOavfAfAGQr5HVf5pVaegLoqNK5f1jyOEQYmNmWW5NLsmA000]--></g></svg>